HIERARCHY
ROOT Hips
{
 OFFSET 0.000000 0.000000 0.000000
 CHANNELS 6 Xposition Yposition Zposition Zrotation Xrotation Yrotation
 JOINT Chest
 {
  OFFSET 0.000000 4.000000 0.000000
  CHANNELS 3 Zrotation Xrotation Yrotation
  JOINT Head
  {
   OFFSET 0.000000 24.803150 0.000000
   CHANNELS 3 Zrotation Xrotation Yrotation
   End Site
   {
    OFFSET 0.000000 9.448819 0.000000
   }
  }
  JOINT LeftUpArm
  {
   OFFSET 7.086614 23.228346 0.000000
   CHANNELS 3 Zrotation Xrotation Yrotation
   JOINT LeftLowArm
   {
    OFFSET 0.000000 -11.811024 0.000000
    CHANNELS 3 Zrotation Xrotation Yrotation
    End Site
    {
     OFFSET 0.000000 -11.811024 0.000000
    }
   }
  }
  JOINT RightUpArm
  {
   OFFSET -7.086614 23.228346 0.000000
   CHANNELS 3 Zrotation Xrotation Yrotation
   JOINT RightLowArm
   {
    OFFSET 0.000000 -11.811024 0.000000
    CHANNELS 3 Zrotation Xrotation Yrotation
    End Site
    {
     OFFSET 0.000000 -11.811024 0.000000
    }
   }
  }
 }
 JOINT LeftUpLeg
 {
  OFFSET 3.937008 0.000000 0.000000
  CHANNELS 3 Zrotation Xrotation Yrotation
  JOINT LeftLowLeg
  {
   OFFSET 0.000000 -16.929134 0.000000
   CHANNELS 3 Zrotation Xrotation Yrotation
   End Site
   {
    OFFSET 0.000000 -19.685040 0.000000
   }
  }
 }
 JOINT RightUpLeg
 {
  OFFSET -3.937008 0.000000 0.000000
  CHANNELS 3 Zrotation Xrotation Yrotation
  JOINT RightLowLeg
  {
   OFFSET 0.000000 -16.929134 0.000000
   CHANNELS 3 Zrotation Xrotation Yrotation
   End Site
   {
    OFFSET 0.000000 -19.685040 0.000000
   }
  }
 }
}
MOTION
Frames: 19      
Frame Time: 0.033333
19.213476 -0.316416 45.502365 6.772996 -3.771341 -90.689445 1.735079 3.825952 -3.159507 0.032631 -6.036774 -21.719662 6.807906 -3.651178 -0.009557 -1.775231 -2.727988 -24.449890 -6.767136 -9.179729 12.207554 -0.144381 -5.833885 5.627017 4.477324 -39.527870 1.201706 -6.343643 67.516441 -0.349502 1.903870 -16.917356 -0.132566 -1.415986 22.976627 2.242426
18.070864 -0.307627 45.546310 6.830741 -3.775520 -90.939034 1.387311 3.838558 -2.660782 -0.069063 -6.297923 -21.477133 6.767475 -1.893214 1.242214 -1.131700 -1.711641 -24.756081 -6.504133 -11.137986 13.661315 -0.249028 -8.295058 3.961528 4.412039 -41.340660 1.275525 -6.803668 61.736488 1.143273 1.906598 -14.956079 -0.695409 -1.383259 22.226168 2.517704
15.645009 -0.518571 45.669361 6.672039 -3.565749 -91.552170 0.772803 3.959847 -1.803262 -0.206731 -6.624130 -20.897345 6.824296 1.447375 3.905865 -0.080182 0.085153 -24.772448 -5.975822 -14.930304 16.632145 -0.245773 -12.282930 1.205641 4.530053 -43.352745 0.130004 -8.385874 47.260399 4.961796 2.455867 -10.520586 -2.198746 -1.979453 20.406769 4.056200
14.352977 -0.650410 45.766045 6.550508 -3.468530 -91.918709 0.440136 3.923989 -1.346473 -0.269012 -6.619864 -20.683830 6.792701 3.099547 5.119463 0.594621 0.780256 -24.593849 -5.694858 -16.664158 18.083212 -0.342807 -13.774878 0.213291 4.737634 -44.236736 -1.433132 -7.376829 39.589825 5.915867 2.639649 -8.183118 -2.901710 -2.296777 19.473736 5.164827
11.645864 -1.089877 45.950623 6.081882 -3.152584 -92.863678 -0.128341 3.702292 -0.453917 -0.413925 -6.154569 -20.563023 6.684388 5.987151 7.409221 1.660505 2.216456 -24.205273 -5.287089 -19.480759 20.708317 -0.273300 -15.856195 -0.761202 6.535390 -45.680782 -3.498940 -3.839483 30.537113 6.337177 2.982044 -3.454848 -4.149586 -3.068987 18.775917 7.348451
10.221992 -1.292032 46.082462 5.746897 -3.085652 -93.381035 -0.498607 3.488486 0.101840 -0.550006 -5.787219 -20.559908 6.649987 7.203758 8.203709 2.013046 2.870175 -23.905909 -5.054994 -20.372005 21.612234 -0.234323 -16.525755 -0.872295 7.806427 -46.063435 -3.005356 -1.899422 27.555353 5.583757 2.722948 -1.229785 -5.087340 -3.602803 19.283026 8.759094
8.780541 -1.459029 46.240669 5.352646 -3.094942 -93.808022 -0.960807 3.272010 0.508636 -0.569703 -5.296010 -20.603973 6.518781 8.089836 9.081461 2.469507 3.593419 -23.731787 -4.798523 -20.900890 22.230673 -0.099751 -17.011835 -0.790964 8.515694 -45.605293 -1.395997 -0.651364 25.334988 3.573096 2.214991 0.576443 -6.563245 -4.432660 20.780336 10.243001
7.295145 -1.564501 46.398876 4.911587 -3.177149 -94.181129 -1.487717 3.098805 0.909557 -0.540579 -4.801475 -20.707972 6.410050 8.624842 9.704248 2.989110 4.359358 -23.462280 -4.505328 -21.027220 22.378956 0.095391 -17.360294 -0.523724 9.414337 -45.369263 0.938182 -1.046856 25.224485 1.252163 1.450641 1.677392 -8.264901 -5.568515 23.833555 11.411438
4.350718 -1.564501 46.741661 4.034536 -3.627496 -95.180115 -2.832995 2.794708 2.038923 -0.310083 -4.058556 -21.015362 6.412082 8.446557 10.005920 3.550968 5.786483 -22.854473 -3.867292 -19.958155 21.160051 0.684871 -17.792601 0.753679 8.595411 -42.548492 4.346151 -1.792518 26.604752 -5.171350 -0.075384 0.417398 -10.482699 -9.922610 34.425529 12.864878
2.874111 -1.441450 46.891079 3.670397 -3.958309 -95.513374 -3.535806 2.758093 2.353905 -0.112555 -4.032556 -21.020603 6.620141 7.697863 9.539112 3.571304 6.154919 -22.363708 -3.669297 -19.046358 20.102669 1.168040 -17.892958 1.647725 7.470328 -41.143658 5.813775 -1.195784 28.829832 -8.030756 -0.569045 -1.640026 -11.378345 -13.522592 41.231842 14.614262
0.131840 -1.019562 47.137180 3.187228 -4.449755 -96.249115 -4.580901 2.670120 2.729110 -0.061920 -3.841224 -21.074490 7.290620 5.081508 7.222915 2.676851 5.953683 -21.431192 -3.211905 -16.897602 17.957207 1.978878 -17.219553 3.782230 4.674653 -37.089314 5.902353 0.499049 30.966892 -11.035338 -0.701268 -7.212294 -14.304027 -24.967850 53.971447 21.423998
-1.160192 -0.747093 47.233864 3.161175 -4.577297 -96.602463 -4.783884 2.647550 2.763642 -0.103634 -3.875288 -21.019171 7.759923 3.182643 5.347510 1.860413 5.355943 -20.751591 -3.002280 -15.857850 16.951340 2.145542 -16.424570 4.971564 3.362316 -34.874096 5.163330 1.449320 31.491247 -10.521909 -0.776224 -10.783923 -15.859541 -32.662872 58.822723 27.824017
-3.629994 -0.123051 47.374493 3.289278 -4.512145 -96.956268 -4.749725 2.691035 2.229120 -0.118563 -3.726298 -20.785604 8.936752 -1.317821 1.226818 0.516422 3.363467 -20.119495 -2.985066 -13.402407 14.877825 2.294822 -14.615490 7.459125 1.726094 -30.333160 4.701571 2.396779 30.749559 -9.077741 -0.778523 -19.014418 -17.364147 -45.890190 65.239571 39.332508
-4.772606 0.166997 47.444809 3.488410 -4.286214 -96.914574 -4.420570 2.706919 1.673492 -0.060315 -3.655768 -20.715883 9.436359 -3.968812 -0.927579 0.054441 2.054142 -20.019310 -3.149300 -12.073418 13.724355 2.246496 -13.558010 8.619480 1.515449 -27.797554 4.388567 2.308290 29.400303 -7.928056 -0.830299 -23.565348 -17.580883 -50.619629 67.103317 43.709873
-7.049043 0.606464 47.559067 3.988491 -3.661349 -96.437485 -3.443661 2.790163 0.455190 0.172805 -3.861333 -20.583981 10.257613 -9.163300 -4.334239 -0.133277 -0.995999 -18.844542 -3.989556 -8.820992 10.227355 2.332846 -11.865151 10.813117 1.276186 -22.740761 3.385636 1.954110 26.071264 -5.911564 0.151211 -31.195181 -14.667941 -40.948750 69.016319 35.417168
-8.165288 0.764672 47.611805 4.253961 -3.356384 -96.000252 -2.886204 2.835673 -0.328339 0.338111 -4.074371 -20.678213 10.813736 -12.007133 -5.107223 -0.107971 -2.648067 -18.266827 -4.561915 -7.022416 8.044125 2.452930 -11.085384 11.669301 1.426737 -20.092175 3.056999 1.464787 24.165138 -5.238205 1.001484 -34.260433 -12.137106 -28.031662 67.934402 23.763189
-10.424147 0.799829 47.638172 4.646722 -2.750459 -94.765472 -1.733053 2.902767 -2.000453 0.381279 -4.562516 -20.810537 11.811964 -17.473001 -5.876488 0.398132 -5.730453 -16.938915 -5.669728 -3.432035 3.076665 2.631489 -9.202394 12.578713 1.655355 -15.199055 2.550196 1.122144 21.072577 -4.708585 2.407810 -38.444679 -7.730672 -6.372733 59.314819 4.784344
-11.610706 0.720725 47.638172 4.707124 -2.567899 -94.158813 -1.226921 2.999964 -2.738817 0.295557 -4.762169 -20.892384 12.264670 -20.266747 -5.974134 0.571290 -6.903457 -16.185232 -6.249061 -1.685161 0.493666 2.650719 -7.828289 12.713091 1.690410 -12.567308 2.364277 0.983566 19.584866 -4.761390 2.689027 -39.476612 -6.200437 -1.667791 52.119766 1.188154
-12.797266 0.606464 47.620594 4.697568 -2.482114 -93.493767 -0.840824 3.103983 -3.385119 0.285726 -4.858707 -21.111021 12.811174 -22.996109 -5.920475 0.833083 -8.259213 -15.520729 -6.719014 0.018192 -2.095803 2.670994 -6.128343 12.646457 1.615046 -9.940587 1.920020 0.977476 18.357594 -4.672841 2.909179 -39.898613 -5.441636 -1.055966 44.134827 1.085674
